<mxfile host="app.diagrams.net" modified="2021-03-12T00:52:28.356Z" agent="5.0 (Windows NT 10.0; Win64; x64) AppleWebKit/537.36 (KHTML, like Gecko) Chrome/89.0.4389.82 Safari/537.36" etag="_iLoR95MmdADhtzLer0n" version="14.4.6" type="github">
  <diagram id="dT-BstXf9z1sqyS1aYiG" name="Page-1">
    <mxGraphModel dx="1795" dy="689" grid="1" gridSize="10" guides="1" tooltips="1" connect="1" arrows="1" fold="1" page="1" pageScale="1" pageWidth="1654" pageHeight="1169" math="0" shadow="0">
      <root>
        <mxCell id="0" />
        <mxCell id="1" parent="0" />
        <mxCell id="E0mVHZY5-Svg33htTyhM-1" value="Public Sealed Class ConversationExporterConfiguration.cs" style="swimlane;fontStyle=1;align=center;verticalAlign=top;childLayout=stackLayout;horizontal=1;startSize=26;horizontalStack=0;resizeParent=1;resizeParentMax=0;resizeLast=0;collapsible=1;marginBottom=0;" parent="1" vertex="1">
          <mxGeometry x="120" y="30" width="360" height="146" as="geometry" />
        </mxCell>
        <mxCell id="E0mVHZY5-Svg33htTyhM-2" value="+ InputFilePath : string&#xa;+ OutputFilePath : string&#xa;+ filterByUser : string&#xa;+ filterByKeyword : string&#xa;+ blacklist : string" style="text;strokeColor=none;fillColor=none;align=left;verticalAlign=top;spacingLeft=4;spacingRight=4;overflow=hidden;rotatable=0;points=[[0,0.5],[1,0.5]];portConstraint=eastwest;" parent="E0mVHZY5-Svg33htTyhM-1" vertex="1">
          <mxGeometry y="26" width="360" height="74" as="geometry" />
        </mxCell>
        <mxCell id="E0mVHZY5-Svg33htTyhM-3" value="" style="line;strokeWidth=1;fillColor=none;align=left;verticalAlign=middle;spacingTop=-1;spacingLeft=3;spacingRight=3;rotatable=0;labelPosition=right;points=[];portConstraint=eastwest;" parent="E0mVHZY5-Svg33htTyhM-1" vertex="1">
          <mxGeometry y="100" width="360" height="20" as="geometry" />
        </mxCell>
        <mxCell id="E0mVHZY5-Svg33htTyhM-4" value="Get, Set" style="text;strokeColor=none;fillColor=none;align=left;verticalAlign=top;spacingLeft=4;spacingRight=4;overflow=hidden;rotatable=0;points=[[0,0.5],[1,0.5]];portConstraint=eastwest;" parent="E0mVHZY5-Svg33htTyhM-1" vertex="1">
          <mxGeometry y="120" width="360" height="26" as="geometry" />
        </mxCell>
        <mxCell id="0P48gXg5jcKvVJu8oGB--47" style="edgeStyle=orthogonalEdgeStyle;rounded=0;orthogonalLoop=1;jettySize=auto;html=1;entryX=0.5;entryY=0;entryDx=0;entryDy=0;" parent="1" source="0P48gXg5jcKvVJu8oGB--1" target="0P48gXg5jcKvVJu8oGB--5" edge="1">
          <mxGeometry relative="1" as="geometry" />
        </mxCell>
        <mxCell id="0P48gXg5jcKvVJu8oGB--1" value="Public Sealed Class ConversationExporter.cs" style="swimlane;fontStyle=1;align=center;verticalAlign=top;childLayout=stackLayout;horizontal=1;startSize=26;horizontalStack=0;resizeParent=1;resizeParentMax=0;resizeLast=0;collapsible=1;marginBottom=0;" parent="1" vertex="1">
          <mxGeometry x="660" y="70" width="450" height="140" as="geometry" />
        </mxCell>
        <mxCell id="0P48gXg5jcKvVJu8oGB--46" style="edgeStyle=orthogonalEdgeStyle;rounded=0;orthogonalLoop=1;jettySize=auto;html=1;entryX=0.5;entryY=0;entryDx=0;entryDy=0;" parent="1" source="0P48gXg5jcKvVJu8oGB--5" target="0P48gXg5jcKvVJu8oGB--9" edge="1">
          <mxGeometry relative="1" as="geometry" />
        </mxCell>
        <mxCell id="0P48gXg5jcKvVJu8oGB--5" value="Public Class Conversation" style="swimlane;fontStyle=1;align=center;verticalAlign=top;childLayout=stackLayout;horizontal=1;startSize=26;horizontalStack=0;resizeParent=1;resizeParentMax=0;resizeLast=0;collapsible=1;marginBottom=0;" parent="1" vertex="1">
          <mxGeometry x="700" y="300" width="370" height="104" as="geometry" />
        </mxCell>
        <mxCell id="0P48gXg5jcKvVJu8oGB--6" value="+ name : string&#xa;+ messages : IEnumerable&lt;Message&gt;" style="text;strokeColor=none;fillColor=none;align=left;verticalAlign=top;spacingLeft=4;spacingRight=4;overflow=hidden;rotatable=0;points=[[0,0.5],[1,0.5]];portConstraint=eastwest;" parent="0P48gXg5jcKvVJu8oGB--5" vertex="1">
          <mxGeometry y="26" width="370" height="44" as="geometry" />
        </mxCell>
        <mxCell id="0P48gXg5jcKvVJu8oGB--7" value="" style="line;strokeWidth=1;fillColor=none;align=left;verticalAlign=middle;spacingTop=-1;spacingLeft=3;spacingRight=3;rotatable=0;labelPosition=right;points=[];portConstraint=eastwest;" parent="0P48gXg5jcKvVJu8oGB--5" vertex="1">
          <mxGeometry y="70" width="370" height="8" as="geometry" />
        </mxCell>
        <mxCell id="0P48gXg5jcKvVJu8oGB--8" value="+ Conversation(name:string, messages:IEnumerable&lt;Message&gt;)" style="text;strokeColor=none;fillColor=none;align=left;verticalAlign=top;spacingLeft=4;spacingRight=4;overflow=hidden;rotatable=0;points=[[0,0.5],[1,0.5]];portConstraint=eastwest;" parent="0P48gXg5jcKvVJu8oGB--5" vertex="1">
          <mxGeometry y="78" width="370" height="26" as="geometry" />
        </mxCell>
        <mxCell id="0P48gXg5jcKvVJu8oGB--9" value="Public Class Message" style="swimlane;fontStyle=1;align=center;verticalAlign=top;childLayout=stackLayout;horizontal=1;startSize=26;horizontalStack=0;resizeParent=1;resizeParentMax=0;resizeLast=0;collapsible=1;marginBottom=0;" parent="1" vertex="1">
          <mxGeometry x="690" y="491" width="390" height="114" as="geometry" />
        </mxCell>
        <mxCell id="0P48gXg5jcKvVJu8oGB--10" value="+ content : string&#xa;+ timestamp : DateTimeOffset&#xa;+ senderId : string" style="text;strokeColor=none;fillColor=none;align=left;verticalAlign=top;spacingLeft=4;spacingRight=4;overflow=hidden;rotatable=0;points=[[0,0.5],[1,0.5]];portConstraint=eastwest;" parent="0P48gXg5jcKvVJu8oGB--9" vertex="1">
          <mxGeometry y="26" width="390" height="54" as="geometry" />
        </mxCell>
        <mxCell id="0P48gXg5jcKvVJu8oGB--11" value="" style="line;strokeWidth=1;fillColor=none;align=left;verticalAlign=middle;spacingTop=-1;spacingLeft=3;spacingRight=3;rotatable=0;labelPosition=right;points=[];portConstraint=eastwest;" parent="0P48gXg5jcKvVJu8oGB--9" vertex="1">
          <mxGeometry y="80" width="390" height="8" as="geometry" />
        </mxCell>
        <mxCell id="0P48gXg5jcKvVJu8oGB--12" value="+ Message(timestamp:DateTimeOffset, senderId:string, content:string)" style="text;strokeColor=none;fillColor=none;align=left;verticalAlign=top;spacingLeft=4;spacingRight=4;overflow=hidden;rotatable=0;points=[[0,0.5],[1,0.5]];portConstraint=eastwest;" parent="0P48gXg5jcKvVJu8oGB--9" vertex="1">
          <mxGeometry y="88" width="390" height="26" as="geometry" />
        </mxCell>
        <mxCell id="0P48gXg5jcKvVJu8oGB--17" style="edgeStyle=orthogonalEdgeStyle;rounded=0;orthogonalLoop=1;jettySize=auto;html=1;entryX=1;entryY=0.5;entryDx=0;entryDy=0;" parent="1" source="0P48gXg5jcKvVJu8oGB--4" target="E0mVHZY5-Svg33htTyhM-2" edge="1">
          <mxGeometry relative="1" as="geometry" />
        </mxCell>
        <mxCell id="0P48gXg5jcKvVJu8oGB--37" style="edgeStyle=orthogonalEdgeStyle;rounded=0;orthogonalLoop=1;jettySize=auto;html=1;entryX=0.5;entryY=0;entryDx=0;entryDy=0;" parent="1" source="0P48gXg5jcKvVJu8oGB--4" target="0P48gXg5jcKvVJu8oGB--18" edge="1">
          <mxGeometry relative="1" as="geometry" />
        </mxCell>
        <mxCell id="7J1g_ZGHI3lsgRINbCzh-3" style="edgeStyle=orthogonalEdgeStyle;rounded=0;orthogonalLoop=1;jettySize=auto;html=1;entryX=1;entryY=0.25;entryDx=0;entryDy=0;" parent="1" source="0P48gXg5jcKvVJu8oGB--4" target="7J1g_ZGHI3lsgRINbCzh-1" edge="1">
          <mxGeometry relative="1" as="geometry">
            <Array as="points">
              <mxPoint x="510" y="160" />
              <mxPoint x="510" y="367" />
            </Array>
          </mxGeometry>
        </mxCell>
        <mxCell id="0P48gXg5jcKvVJu8oGB--4" value="+ Main(args : string[]) : void&#xa;+ ExportConversation(inputFilePath : string, outputFile : string, &#xa;      filters: BaseFilters[], blacklists:IBlacklist[]) : void&#xa;+ ReadConversation (inputFilePath : string,&#xa;   filters: BaseFilters[], blacklists:IBlacklist[]) : Conversation&#xa;+ WriteConversation (conversation : Conversation, outputFilePath : string) : void" style="text;strokeColor=none;fillColor=none;align=left;verticalAlign=top;spacingLeft=4;spacingRight=4;overflow=hidden;rotatable=0;points=[[0,0.5],[1,0.5]];portConstraint=eastwest;" parent="1" vertex="1">
          <mxGeometry x="660" y="96" width="450" height="84" as="geometry" />
        </mxCell>
        <mxCell id="0P48gXg5jcKvVJu8oGB--18" value="Public Abstract Class BaseFilter.cs" style="swimlane;fontStyle=1;align=center;verticalAlign=top;childLayout=stackLayout;horizontal=1;startSize=26;horizontalStack=0;resizeParent=1;resizeParentMax=0;resizeLast=0;collapsible=1;marginBottom=0;" parent="1" vertex="1">
          <mxGeometry x="1180" y="499" width="400" height="86" as="geometry" />
        </mxCell>
        <mxCell id="0P48gXg5jcKvVJu8oGB--19" value="+ filterValue: string[]" style="text;strokeColor=none;fillColor=none;align=left;verticalAlign=top;spacingLeft=4;spacingRight=4;overflow=hidden;rotatable=0;points=[[0,0.5],[1,0.5]];portConstraint=eastwest;" parent="0P48gXg5jcKvVJu8oGB--18" vertex="1">
          <mxGeometry y="26" width="400" height="26" as="geometry" />
        </mxCell>
        <mxCell id="0P48gXg5jcKvVJu8oGB--20" value="" style="line;strokeWidth=1;fillColor=none;align=left;verticalAlign=middle;spacingTop=-1;spacingLeft=3;spacingRight=3;rotatable=0;labelPosition=right;points=[];portConstraint=eastwest;" parent="0P48gXg5jcKvVJu8oGB--18" vertex="1">
          <mxGeometry y="52" width="400" height="8" as="geometry" />
        </mxCell>
        <mxCell id="0P48gXg5jcKvVJu8oGB--21" value="+ BaseFilter()&#xa;+ FilterInput (unixSeconds:string, userId:string, contents:string) : string[]" style="text;strokeColor=none;fillColor=none;align=left;verticalAlign=top;spacingLeft=4;spacingRight=4;overflow=hidden;rotatable=0;points=[[0,0.5],[1,0.5]];portConstraint=eastwest;" parent="0P48gXg5jcKvVJu8oGB--18" vertex="1">
          <mxGeometry y="60" width="400" height="26" as="geometry" />
        </mxCell>
        <mxCell id="0P48gXg5jcKvVJu8oGB--22" value="Public Class UserFilter.cs" style="swimlane;fontStyle=1;align=center;verticalAlign=top;childLayout=stackLayout;horizontal=1;startSize=26;horizontalStack=0;resizeParent=1;resizeParentMax=0;resizeLast=0;collapsible=1;marginBottom=0;" parent="1" vertex="1">
          <mxGeometry x="1120" y="650" width="240" height="110" as="geometry" />
        </mxCell>
        <mxCell id="0P48gXg5jcKvVJu8oGB--23" value="^+ filterValue:string[]" style="text;strokeColor=none;fillColor=none;align=left;verticalAlign=top;spacingLeft=4;spacingRight=4;overflow=hidden;rotatable=0;points=[[0,0.5],[1,0.5]];portConstraint=eastwest;" parent="0P48gXg5jcKvVJu8oGB--22" vertex="1">
          <mxGeometry y="26" width="240" height="26" as="geometry" />
        </mxCell>
        <mxCell id="0P48gXg5jcKvVJu8oGB--24" value="" style="line;strokeWidth=1;fillColor=none;align=left;verticalAlign=middle;spacingTop=-1;spacingLeft=3;spacingRight=3;rotatable=0;labelPosition=right;points=[];portConstraint=eastwest;" parent="0P48gXg5jcKvVJu8oGB--22" vertex="1">
          <mxGeometry y="52" width="240" height="8" as="geometry" />
        </mxCell>
        <mxCell id="0P48gXg5jcKvVJu8oGB--25" value="+ UserFilter(filterValues:string[])&#xa;^+ FilterInput (unixSeconds:string, &#xa;        userId:string, contents:string) : string[]" style="text;strokeColor=none;fillColor=none;align=left;verticalAlign=top;spacingLeft=4;spacingRight=4;overflow=hidden;rotatable=0;points=[[0,0.5],[1,0.5]];portConstraint=eastwest;" parent="0P48gXg5jcKvVJu8oGB--22" vertex="1">
          <mxGeometry y="60" width="240" height="50" as="geometry" />
        </mxCell>
        <mxCell id="0P48gXg5jcKvVJu8oGB--28" value="Extends" style="endArrow=block;endSize=16;endFill=0;html=1;exitX=0.75;exitY=0;exitDx=0;exitDy=0;entryX=0.283;entryY=1.051;entryDx=0;entryDy=0;entryPerimeter=0;" parent="1" source="0P48gXg5jcKvVJu8oGB--22" target="0P48gXg5jcKvVJu8oGB--21" edge="1">
          <mxGeometry width="160" relative="1" as="geometry">
            <mxPoint x="1370" y="730" as="sourcePoint" />
            <mxPoint x="1530" y="730" as="targetPoint" />
            <Array as="points" />
          </mxGeometry>
        </mxCell>
        <mxCell id="0P48gXg5jcKvVJu8oGB--29" value="Public Class KeywordFilter.cs" style="swimlane;fontStyle=1;align=center;verticalAlign=top;childLayout=stackLayout;horizontal=1;startSize=26;horizontalStack=0;resizeParent=1;resizeParentMax=0;resizeLast=0;collapsible=1;marginBottom=0;" parent="1" vertex="1">
          <mxGeometry x="1381" y="760" width="250" height="110" as="geometry" />
        </mxCell>
        <mxCell id="0P48gXg5jcKvVJu8oGB--30" value="^+ filterValue : string" style="text;strokeColor=none;fillColor=none;align=left;verticalAlign=top;spacingLeft=4;spacingRight=4;overflow=hidden;rotatable=0;points=[[0,0.5],[1,0.5]];portConstraint=eastwest;" parent="0P48gXg5jcKvVJu8oGB--29" vertex="1">
          <mxGeometry y="26" width="250" height="26" as="geometry" />
        </mxCell>
        <mxCell id="0P48gXg5jcKvVJu8oGB--31" value="" style="line;strokeWidth=1;fillColor=none;align=left;verticalAlign=middle;spacingTop=-1;spacingLeft=3;spacingRight=3;rotatable=0;labelPosition=right;points=[];portConstraint=eastwest;" parent="0P48gXg5jcKvVJu8oGB--29" vertex="1">
          <mxGeometry y="52" width="250" height="8" as="geometry" />
        </mxCell>
        <mxCell id="0P48gXg5jcKvVJu8oGB--32" value="+ KeywordFilter(filterValues:string[])&#xa;^+ FilterInput (unixSeconds:string, &#xa;        userId:string, contents:string) : string[]" style="text;strokeColor=none;fillColor=none;align=left;verticalAlign=top;spacingLeft=4;spacingRight=4;overflow=hidden;rotatable=0;points=[[0,0.5],[1,0.5]];portConstraint=eastwest;" parent="0P48gXg5jcKvVJu8oGB--29" vertex="1">
          <mxGeometry y="60" width="250" height="50" as="geometry" />
        </mxCell>
        <mxCell id="0P48gXg5jcKvVJu8oGB--33" value="Extends" style="endArrow=block;endSize=16;endFill=0;html=1;entryX=0.67;entryY=1.077;entryDx=0;entryDy=0;exitX=0.5;exitY=0;exitDx=0;exitDy=0;entryPerimeter=0;" parent="1" source="0P48gXg5jcKvVJu8oGB--29" target="0P48gXg5jcKvVJu8oGB--21" edge="1">
          <mxGeometry width="160" relative="1" as="geometry">
            <mxPoint x="1440" y="640" as="sourcePoint" />
            <mxPoint x="1600" y="640" as="targetPoint" />
            <Array as="points" />
          </mxGeometry>
        </mxCell>
        <mxCell id="0P48gXg5jcKvVJu8oGB--35" style="edgeStyle=orthogonalEdgeStyle;rounded=0;orthogonalLoop=1;jettySize=auto;html=1;entryX=0.25;entryY=0;entryDx=0;entryDy=0;" parent="1" source="0P48gXg5jcKvVJu8oGB--6" target="0P48gXg5jcKvVJu8oGB--18" edge="1">
          <mxGeometry relative="1" as="geometry">
            <Array as="points">
              <mxPoint x="1280" y="348" />
            </Array>
          </mxGeometry>
        </mxCell>
        <mxCell id="0P48gXg5jcKvVJu8oGB--39" value="Public KeywordBlacklist.cs  " style="swimlane;fontStyle=1;align=center;verticalAlign=top;childLayout=stackLayout;horizontal=1;startSize=26;horizontalStack=0;resizeParent=1;resizeParentMax=0;resizeLast=0;collapsible=1;marginBottom=0;" parent="1" vertex="1">
          <mxGeometry x="130" y="511" width="290" height="94" as="geometry" />
        </mxCell>
        <mxCell id="0P48gXg5jcKvVJu8oGB--40" value="+ blackListValues : string[]&#xa;+ removedMessage : string" style="text;strokeColor=none;fillColor=none;align=left;verticalAlign=top;spacingLeft=4;spacingRight=4;overflow=hidden;rotatable=0;points=[[0,0.5],[1,0.5]];portConstraint=eastwest;" parent="0P48gXg5jcKvVJu8oGB--39" vertex="1">
          <mxGeometry y="26" width="290" height="34" as="geometry" />
        </mxCell>
        <mxCell id="0P48gXg5jcKvVJu8oGB--41" value="" style="line;strokeWidth=1;fillColor=none;align=left;verticalAlign=middle;spacingTop=-1;spacingLeft=3;spacingRight=3;rotatable=0;labelPosition=right;points=[];portConstraint=eastwest;" parent="0P48gXg5jcKvVJu8oGB--39" vertex="1">
          <mxGeometry y="60" width="290" height="8" as="geometry" />
        </mxCell>
        <mxCell id="0P48gXg5jcKvVJu8oGB--42" value="^+ CheckInput(messageIn: string[]) : string[]" style="text;strokeColor=none;fillColor=none;align=left;verticalAlign=top;spacingLeft=4;spacingRight=4;overflow=hidden;rotatable=0;points=[[0,0.5],[1,0.5]];portConstraint=eastwest;" parent="0P48gXg5jcKvVJu8oGB--39" vertex="1">
          <mxGeometry y="68" width="290" height="26" as="geometry" />
        </mxCell>
        <mxCell id="7J1g_ZGHI3lsgRINbCzh-1" value="«interface»&lt;br&gt;&lt;b&gt;IBlacklist&lt;/b&gt;" style="html=1;" parent="1" vertex="1">
          <mxGeometry x="245" y="354" width="110" height="50" as="geometry" />
        </mxCell>
        <mxCell id="7J1g_ZGHI3lsgRINbCzh-2" style="edgeStyle=orthogonalEdgeStyle;rounded=0;orthogonalLoop=1;jettySize=auto;html=1;entryX=1;entryY=0.5;entryDx=0;entryDy=0;" parent="1" source="0P48gXg5jcKvVJu8oGB--6" target="7J1g_ZGHI3lsgRINbCzh-1" edge="1">
          <mxGeometry relative="1" as="geometry" />
        </mxCell>
        <mxCell id="7J1g_ZGHI3lsgRINbCzh-4" value="" style="endArrow=block;dashed=1;endFill=0;endSize=12;html=1;entryX=0.5;entryY=1;entryDx=0;entryDy=0;exitX=0.5;exitY=0;exitDx=0;exitDy=0;" parent="1" source="0P48gXg5jcKvVJu8oGB--39" target="7J1g_ZGHI3lsgRINbCzh-1" edge="1">
          <mxGeometry width="160" relative="1" as="geometry">
            <mxPoint x="180" y="480" as="sourcePoint" />
            <mxPoint x="340" y="480" as="targetPoint" />
          </mxGeometry>
        </mxCell>
      </root>
    </mxGraphModel>
  </diagram>
</mxfile>
